<svg xmlns="http://www.w3.org/2000/svg" width="1200" height="720">
<rect width="100%" height="100%" fill="white"/>
<line x1="110" y1="50.00" x2="1160" y2="50.00" stroke="#e6e6e6" />
<line x1="110" y1="168.00" x2="1160" y2="168.00" stroke="#e6e6e6" />
<line x1="110" y1="286.00" x2="1160" y2="286.00" stroke="#e6e6e6" />
<line x1="110" y1="404.00" x2="1160" y2="404.00" stroke="#e6e6e6" />
<line x1="110" y1="522.00" x2="1160" y2="522.00" stroke="#e6e6e6" />
<line x1="110" y1="640.00" x2="1160" y2="640.00" stroke="#e6e6e6" />
<line x1="110" y1="640" x2="1160" y2="640" stroke="#333"/>
<line x1="110" y1="50" x2="110" y2="640" stroke="#333"/>
<polyline fill="none" stroke="#1f77b4" stroke-width="4" points="110.00,157.30 111.73,163.26 113.48,169.19 115.23,175.05 116.98,180.84 118.73,186.55 120.48,192.19 122.23,197.76 123.98,203.25 125.73,208.67 127.48,214.02 129.23,219.30 130.98,224.52 132.73,229.67 134.48,234.75 136.23,239.77 137.98,244.72 139.73,249.61 141.48,254.43 143.23,259.20 144.98,263.90 146.73,268.54 148.48,273.12 150.23,277.64 151.98,282.11 153.73,286.51 155.48,290.86 157.23,295.16 158.98,299.40 160.73,303.58 162.48,307.72 164.23,311.80 165.98,315.82 167.73,319.79 169.48,323.72 171.23,327.59 172.98,331.42 174.73,335.19 176.48,338.92 178.23,342.59 179.98,346.23 181.73,349.81 183.48,353.35 185.23,356.84 186.98,360.29 188.73,363.70 190.48,367.06 192.23,370.38 193.98,373.66 195.73,376.89 197.48,380.09 199.23,383.24 200.98,386.35 202.73,389.42 204.48,392.46 206.23,395.45 207.98,398.41 209.73,401.33 211.48,404.21 213.23,407.06 214.98,409.87 216.73,412.64 218.48,415.38 220.23,418.08 221.98,420.75 223.73,423.39 225.48,425.99 227.23,428.56 228.98,431.09 230.73,433.60 232.48,436.07 234.23,438.51 235.98,440.92 237.73,443.30 239.48,445.65 241.23,447.97 242.98,450.26 244.73,452.52 246.48,454.75 248.23,456.96 249.98,459.13 251.73,461.28 253.48,463.41 255.23,465.50 256.98,467.57 258.73,469.61 260.49,471.63 262.24,473.62 263.99,475.59 265.74,477.53 267.49,479.45 269.24,481.34 270.99,483.21 272.74,485.06 274.49,486.88 276.24,488.68 277.99,490.46 279.74,492.21 281.49,493.94 283.24,495.65 284.99,497.35 286.74,499.01 288.49,500.66 290.24,502.29 291.99,503.90 293.74,505.48 295.49,507.05 297.24,508.60 298.99,510.12 300.74,511.63 302.49,513.12 304.24,514.60 305.99,516.04 307.74,517.48 309.49,518.90 311.24,520.30 312.99,521.68 314.74,523.04 316.49,524.39 318.24,525.73 319.99,527.04 321.74,528.34 323.49,529.62 325.24,530.88 326.99,532.14 328.74,533.37 330.49,534.59 332.24,535.80 333.99,536.99 335.74,538.16 337.49,539.32 339.24,540.47 340.99,541.60 342.74,542.72 344.49,543.83 346.24,544.91 347.99,545.99 349.74,547.06 351.49,548.11 353.24,549.15 354.99,550.17 356.74,551.19 358.49,552.19 360.24,553.17 361.99,554.15 363.74,555.11 365.49,556.07 367.24,557.01 368.99,557.94 370.74,558.86 372.49,559.76 374.24,560.66 375.99,561.54 377.74,562.42 379.49,563.28 381.24,564.13 382.99,564.97 384.74,565.81 386.49,566.63 388.24,567.44 389.99,568.24 391.74,569.04 393.49,569.82 395.24,570.59 396.99,571.35 398.74,572.11 400.49,572.86 402.24,573.59 403.99,574.32 405.74,575.04 407.49,575.75 409.24,576.45 410.99,577.15 412.74,577.83 414.49,578.51 416.24,579.18 417.99,579.84 419.74,580.49 421.49,581.13 423.24,581.77 424.99,582.40 426.74,583.02 428.49,583.63 430.24,584.24 431.99,584.85 433.74,585.44 435.49,586.02 437.24,586.60 438.99,587.17 440.74,587.74 442.49,588.30 444.24,588.85 445.99,589.40 447.74,589.93 449.49,590.47 451.24,590.99 452.99,591.51 454.74,592.03 456.49,592.53 458.24,593.03 459.99,593.53 461.74,594.02 463.49,594.51 465.24,594.99 466.99,595.46 468.74,595.92 470.49,596.39 472.24,596.84 473.99,597.29 475.74,597.74 477.49,598.18 479.24,598.62 480.99,599.05 482.74,599.47 484.49,599.89 486.24,600.31 487.99,600.72 489.74,601.13 491.49,601.53 493.24,601.92 494.99,602.32 496.74,602.71 498.49,603.09 500.24,603.47 501.99,603.84 503.74,604.21 505.49,604.58 507.24,604.94 508.99,605.30 510.74,605.65 512.49,606.00 514.24,606.35 515.99,606.69 517.74,607.02 519.49,607.36 521.24,607.69 522.99,608.02 524.74,608.34 526.49,608.65 528.24,608.97 529.99,609.28 531.74,609.59 533.49,609.90 535.24,610.20 536.99,610.50 538.74,610.79 540.49,611.08 542.24,611.37 543.99,611.65 545.74,611.94 547.49,612.21 549.24,612.49 550.99,612.76 552.74,613.03 554.49,613.30 556.24,613.56 557.99,613.82 559.74,614.08 561.49,614.33 563.24,614.58 564.99,614.83 566.74,615.08 568.49,615.32 570.24,615.56 571.99,615.80 573.74,616.04 575.49,616.27 577.24,616.50 578.99,616.72 580.74,616.95 582.49,617.17 584.24,617.39 585.99,617.61 587.74,617.83 589.49,618.04 591.24,618.25 592.99,618.46 594.74,618.67 596.49,618.87 598.24,619.07 599.99,619.27 601.74,619.47 603.49,619.67 605.24,619.86 606.99,620.05 608.74,620.24 610.49,620.43 612.24,620.61 613.99,620.79 615.74,620.98 617.49,621.16 619.24,621.34 620.99,621.51 622.74,621.68 624.49,621.86 626.24,622.03 627.99,622.20 629.74,622.36 631.49,622.53 633.24,622.69 634.99,622.85 636.74,623.01 638.49,623.17 640.24,623.32 641.99,623.48 643.74,623.63 645.49,623.79 647.24,623.94 648.99,624.08 650.74,624.23 652.49,624.38 654.24,624.52 655.99,624.66 657.74,624.80 659.49,624.94 661.24,625.08 662.99,625.22 664.74,625.35 666.49,625.49 668.24,625.62 669.99,625.75 671.74,625.88 673.49,626.01 675.24,626.13 676.99,626.26 678.74,626.38 680.49,626.51 682.24,626.63 683.99,626.75 685.74,626.87 687.49,626.99 689.24,627.11 690.99,627.22 692.74,627.34 694.49,627.45 696.24,627.56 697.99,627.67 699.74,627.79 701.49,627.90 703.24,628.00 704.99,628.11 706.74,628.22 708.49,628.32 710.24,628.42 711.99,628.53 713.74,628.63 715.49,628.73 717.24,628.83 718.99,628.93 720.74,629.03 722.49,629.13 724.24,629.22 725.99,629.32 727.74,629.41 729.49,629.51 731.24,629.60 732.99,629.69 734.74,629.78 736.49,629.87 738.24,629.96 739.99,630.05 741.74,630.14 743.49,630.22 745.24,630.31 746.99,630.39 748.74,630.48 750.49,630.56 752.24,630.64 753.99,630.73 755.74,630.81 757.49,630.89 759.24,630.97 760.99,631.04 762.74,631.12 764.49,631.20 766.24,631.28 767.99,631.35 769.74,631.43 771.49,631.50 773.24,631.58 774.99,631.65 776.74,631.72 778.49,631.79 780.24,631.87 781.99,631.94 783.74,632.01 785.49,632.08 787.24,632.15 788.99,632.21 790.74,632.28 792.49,632.35 794.24,632.41 795.99,632.48 797.74,632.54 799.49,632.61 801.24,632.67 802.99,632.74 804.74,632.80 806.49,632.86 808.24,632.92 809.99,632.98 811.74,633.04 813.49,633.10 815.24,633.16 816.99,633.22 818.74,633.28 820.49,633.34 822.24,633.40 823.99,633.45 825.74,633.51 827.49,633.56 829.24,633.62 830.99,633.67 832.74,633.73 834.49,633.78 836.24,633.84 837.99,633.89 839.74,633.94 841.49,634.00 843.24,634.05 844.99,634.10 846.74,634.15 848.49,634.20 850.24,634.25 851.99,634.30 853.74,634.35 855.49,634.40 857.24,634.45 858.99,634.49 860.75,634.54 862.50,634.59 864.25,634.64 866.00,634.68 867.75,634.73 869.50,634.78 871.25,634.82 873.00,634.86 874.75,634.91 876.50,634.96 878.25,635.00 880.00,635.04 881.75,635.08 883.50,635.13 885.25,635.17 887.00,635.21 888.75,635.26 890.50,635.30 892.25,635.34 894.00,635.38 895.75,635.42 897.50,635.46 899.25,635.50 901.00,635.54 902.75,635.58 904.50,635.62 906.25,635.65 908.00,635.69 909.75,635.73 911.50,635.77 913.25,635.81 915.00,635.84 916.75,635.88 918.50,635.92 920.25,635.95 922.00,635.99 923.75,636.02 925.50,636.06 927.25,636.09 929.00,636.13 930.75,636.16 932.50,636.20 934.25,636.23 936.00,636.26 937.75,636.30 939.50,636.33 941.25,636.37 943.00,636.40 944.75,636.43 946.50,636.46 948.25,636.49 950.00,636.52 951.75,636.56 953.50,636.59 955.25,636.62 957.00,636.65 958.75,636.68 960.50,636.71 962.25,636.74 964.00,636.77 965.75,636.80 967.50,636.83 969.25,636.86 971.00,636.89 972.75,636.92 974.50,636.95 976.25,636.97 978.00,637.00 979.75,637.03 981.50,637.06 983.25,637.08 985.00,637.11 986.75,637.14 988.50,637.17 990.25,637.19 992.00,637.22 993.75,637.25 995.50,637.27 997.25,637.30 999.00,637.33 1000.75,637.35 1002.50,637.37 1004.25,637.40 1006.00,637.43 1007.75,637.45 1009.50,637.48 1011.25,637.50 1013.00,637.52 1014.75,637.55 1016.50,637.57 1018.25,637.60 1020.00,637.62 1021.75,637.64 1023.50,637.67 1025.25,637.69 1027.00,637.71 1028.75,637.74 1030.50,637.76 1032.25,637.78 1034.00,637.81 1035.75,637.83 1037.50,637.85 1039.25,637.87 1041.00,637.89 1042.75,637.92 1044.50,637.94 1046.25,637.96 1048.00,637.98 1049.75,638.00 1051.50,638.02 1053.25,638.04 1055.00,638.06 1056.75,638.08 1058.50,638.11 1060.25,638.12 1062.00,638.15 1063.75,638.16 1065.50,638.19 1067.25,638.20 1069.00,638.22 1070.75,638.24 1072.50,638.26 1074.25,638.28 1076.00,638.30 1077.75,638.32 1079.50,638.34 1081.25,638.36 1083.00,638.37 1084.75,638.39 1086.50,638.41 1088.25,638.43 1090.00,638.45 1091.75,638.47 1093.50,638.48 1095.25,638.50 1097.00,638.52 1098.75,638.54 1100.50,638.56 1102.25,638.57 1104.00,638.59 1105.75,638.61 1107.50,638.63 1109.25,638.64 1111.00,638.66 1112.75,638.67 1114.50,638.69 1116.25,638.70 1118.00,638.72 1119.75,638.74 1121.50,638.76 1123.25,638.77 1125.00,638.79 1126.75,638.80 1128.50,638.82 1130.25,638.83 1132.00,638.85 1133.75,638.87 1135.50,638.88 1137.25,638.89 1139.00,638.91 1140.75,638.93 1142.50,638.94 1144.25,638.96 1146.00,638.97 1147.75,638.99 1149.50,639.00 1151.25,639.01 1153.00,639.03 1154.75,639.04 1156.50,639.06 1158.25,639.07 1160.00,639.08" />
<polyline fill="none" stroke="#d62728" stroke-width="3" points="110.00,295.37 111.73,181.13 113.48,180.45 115.23,147.84 116.98,136.79 118.73,95.71 120.48,142.85 122.23,157.78 123.98,205.71 125.73,220.19 127.48,255.06 129.23,243.58 130.98,231.93 132.73,215.57 134.48,243.58 136.23,239.64 137.98,222.84 139.73,224.26 141.48,213.74 143.23,202.10 144.98,205.80 146.73,225.49 148.48,251.12 150.23,287.44 151.98,302.17 153.73,312.90 155.48,315.43 157.23,289.67 158.98,271.13 160.73,263.01 162.48,270.00 164.23,295.81 165.98,302.09 167.73,317.48 169.48,342.29 171.23,346.60 172.98,328.67 174.73,359.78 176.48,369.39 178.23,340.60 179.98,326.40 181.73,341.28 183.48,333.72 185.23,337.12 186.98,368.70 188.73,384.72 190.48,391.02 192.23,399.43 193.98,403.39 195.73,403.51 197.48,415.72 199.23,402.57 200.98,412.47 202.73,420.70 204.48,408.86 206.23,396.26 207.98,414.37 209.73,418.09 211.48,401.78 213.23,401.25 214.98,402.66 216.73,396.83 218.48,393.09 220.23,404.98 221.98,422.33 223.73,425.39 225.48,419.86 227.23,408.27 228.98,415.78 230.73,424.40 232.48,420.72 234.23,420.88 235.98,435.95 237.73,426.47 239.48,422.04 241.23,440.82 242.98,448.66 244.73,449.87 246.48,455.36 248.23,458.31 249.98,459.49 251.73,467.71 253.48,475.73 255.23,472.17 256.98,475.99 258.73,470.58 260.49,462.47 262.24,463.64 263.99,474.27 265.74,464.08 267.49,459.98 269.24,479.35 270.99,469.21 272.74,469.00 274.49,475.47 276.24,485.75 277.99,484.16 279.74,486.50 281.49,487.70 283.24,493.17 284.99,495.04 286.74,494.16 288.49,501.63 290.24,511.13 291.99,508.71 293.74,509.35 295.49,515.09 297.24,518.75 298.99,508.65 300.74,508.42 302.49,506.33 304.24,498.16 305.99,495.63 307.74,500.72 309.49,506.14 311.24,513.62 312.99,518.39 314.74,525.54 316.49,524.22 318.24,525.46 319.99,530.88 321.74,537.64 323.49,532.02 325.24,534.23 326.99,538.02 328.74,532.17 330.49,528.25 332.24,527.85 333.99,538.21 335.74,534.02 337.49,534.91 339.24,534.74 340.99,534.61 342.74,530.07 344.49,535.04 346.24,540.53 347.99,542.77 349.74,548.42 351.49,548.10 353.24,552.60 354.99,554.44 356.74,559.40 358.49,558.99 360.24,563.61 361.99,561.74 363.74,560.38 365.49,559.48 367.24,557.95 368.99,560.43 370.74,562.20 372.49,559.03 374.24,560.76 375.99,563.94 377.74,562.97 379.49,564.26 381.24,569.44 382.99,563.72 384.74,567.18 386.49,566.25 388.24,563.53 389.99,564.55 391.74,571.54 393.49,568.75 395.24,573.49 396.99,577.51 398.74,574.43 400.49,572.79 402.24,576.91 403.99,574.72 405.74,575.51 407.49,579.46 409.24,580.01 410.99,580.93 412.74,578.68 414.49,574.93 416.24,575.52 417.99,575.38 419.74,576.08 421.49,581.59 423.24,586.00 424.99,584.60 426.74,583.58 428.49,584.82 430.24,582.36 431.99,581.28 433.74,585.45 435.49,588.93 437.24,590.05 438.99,593.11 440.74,595.64 442.49,593.72 444.24,594.70 445.99,593.51 447.74,594.79 449.49,594.20 451.24,597.29 452.99,598.61 454.74,599.28 456.49,595.37 458.24,594.18 459.99,592.61 461.74,592.93 463.49,593.09 465.24,595.15 466.99,597.85 468.74,597.18 470.49,596.63 472.24,598.49 473.99,599.85 475.74,599.41 477.49,601.81 479.24,601.25 480.99,598.40 482.74,596.52 484.49,597.99 486.24,599.36 487.99,599.13 489.74,601.76 491.49,605.52 493.24,603.91 494.99,602.47 496.74,605.66 498.49,605.88 500.24,605.41 501.99,605.18 503.74,604.55 505.49,604.48 507.24,604.80 508.99,604.75 510.74,605.56 512.49,606.75 514.24,606.95 515.99,607.45 517.74,606.71 519.49,606.41 521.24,606.37 522.99,606.33 524.74,605.13 526.49,605.44 528.24,605.90 529.99,606.56 531.74,605.97 533.49,607.77 535.24,609.36 536.99,609.89 538.74,609.64 540.49,611.15 542.24,609.97 543.99,609.60 545.74,609.46 547.49,609.91 549.24,609.17 550.99,610.41 552.74,609.96 554.49,611.83 556.24,611.98 557.99,612.03 559.74,610.84 561.49,611.62 563.24,611.21 564.99,611.93 566.74,612.79 568.49,614.01 570.24,614.17 571.99,614.55 573.74,615.09 575.49,614.96 577.24,616.43 578.99,617.05 580.74,617.33 582.49,617.69 584.24,618.01 585.99,616.61 587.74,617.06 589.49,618.21 591.24,618.31 592.99,617.54 594.74,618.50 596.49,618.23 598.24,617.15 599.99,617.10 601.74,618.85 603.49,618.12 605.24,617.90 606.99,617.56 608.74,617.94 610.49,617.89 612.24,619.38 613.99,619.78 615.74,620.58 617.49,621.18 619.24,620.76 620.99,620.50 622.74,621.13 624.49,620.88 626.24,620.92 627.99,621.45 629.74,622.05 631.49,622.27 633.24,622.50 634.99,622.48 636.74,622.97 638.49,623.32 640.24,623.45 641.99,623.51 643.74,623.65 645.49,623.89 647.24,623.62 648.99,623.55 650.74,624.89 652.49,625.19 654.24,625.32 655.99,624.87 657.74,625.62 659.49,625.85 661.24,625.90 662.99,625.82 664.74,626.70 666.49,626.10 668.24,625.11 669.99,624.80 671.74,624.84 673.49,624.36 675.24,625.62 676.99,625.99 678.74,626.87 680.49,626.95 682.24,627.00 683.99,626.81 685.74,627.64 687.49,627.05 689.24,627.48 690.99,627.79 692.74,627.87 694.49,627.33 696.24,628.27 697.99,628.05 699.74,628.42 701.49,628.26 703.24,628.57 704.99,627.67 706.74,627.85 708.49,627.44 710.24,627.18 711.99,626.90 713.74,627.81 715.49,627.42 717.24,627.42 718.99,627.76 720.74,627.93 722.49,627.71 724.24,627.82 725.99,628.11 727.74,628.16 729.49,628.27 731.24,628.71 732.99,628.96 734.74,629.15 736.49,629.05 738.24,629.37 739.99,629.45 741.74,629.28 743.49,629.21 745.24,629.50 746.99,630.01 748.74,629.70 750.49,629.93 752.24,630.23 753.99,630.27 755.74,629.89 757.49,630.10 759.24,630.68 760.99,630.72 762.74,630.84 764.49,630.74 766.24,630.42 767.99,630.26 769.74,630.18 771.49,630.47 773.24,631.01 774.99,631.49 776.74,631.41 778.49,632.08 780.24,631.88 781.99,631.53 783.74,631.31 785.49,631.65 787.24,631.75 788.99,632.01 790.74,632.51 792.49,632.97 794.24,632.62 795.99,632.68 797.74,633.09 799.49,633.05 801.24,632.77 802.99,632.84 804.74,632.34 806.49,632.13 808.24,632.18 809.99,632.49 811.74,632.68 813.49,632.82 815.24,632.96 816.99,633.17 818.74,633.11 820.49,633.16 822.24,633.54 823.99,633.59 825.74,633.68 827.49,633.72 829.24,634.13 830.99,634.03 832.74,633.91 834.49,633.58 836.24,633.51 837.99,633.38 839.74,633.66 841.49,633.80 843.24,633.80 844.99,634.03 846.74,634.11 848.49,633.77 850.24,634.04 851.99,634.53 853.74,634.56 855.49,634.74 857.24,634.89 858.99,634.83 860.75,634.74 862.50,634.60 864.25,634.47 866.00,634.59 867.75,634.35 869.50,634.20 871.25,634.34 873.00,634.47 874.75,634.70 876.50,635.05 878.25,635.33 880.00,635.27 881.75,635.12 883.50,635.09 885.25,635.12 887.00,634.91 888.75,635.08 890.50,635.37 892.25,635.13 894.00,635.07 895.75,635.43 897.50,635.65 899.25,635.42 901.00,635.75 902.75,635.82 904.50,635.74 906.25,635.85 908.00,636.12 909.75,636.11 911.50,636.17 913.25,636.02 915.00,636.01 916.75,635.77 918.50,635.61 920.25,635.57 922.00,635.71 923.75,635.69 925.50,635.78 927.25,635.94 929.00,636.04 930.75,636.22 932.50,636.19 934.25,636.42 936.00,636.54 937.75,636.68 939.50,636.48 941.25,636.56 943.00,636.38 944.75,636.47 946.50,636.29 948.25,636.29 950.00,636.34 951.75,636.55 953.50,636.47 955.25,636.54 957.00,636.64 958.75,636.63 960.50,636.66 962.25,636.59 964.00,636.71 965.75,636.92 967.50,636.89 969.25,636.92 971.00,636.89 972.75,636.82 974.50,636.76 976.25,636.94 978.00,636.95 979.75,637.11 981.50,637.18 983.25,637.08 985.00,636.96 986.75,636.87 988.50,636.98 990.25,637.02 992.00,637.27 993.75,637.26 995.50,637.33 997.25,637.29 999.00,637.33 1000.75,637.16 1002.50,637.20 1004.25,637.25 1006.00,637.36 1007.75,637.44 1009.50,637.50 1011.25,637.63 1013.00,637.73 1014.75,637.64 1016.50,637.53 1018.25,637.58 1020.00,637.62 1021.75,637.47 1023.50,637.51 1025.25,637.51 1027.00,637.59 1028.75,637.45 1030.50,637.48 1032.25,637.58 1034.00,637.68 1035.75,637.64 1037.50,637.69 1039.25,637.89 1041.00,637.91 1042.75,637.87 1044.50,637.93 1046.25,637.95 1048.00,637.83 1049.75,637.68 1051.50,637.85 1053.25,637.86 1055.00,638.02 1056.75,638.14 1058.50,638.19 1060.25,638.16 1062.00,638.14 1063.75,638.06 1065.50,637.98 1067.25,638.09 1069.00,638.18 1070.75,638.17 1072.50,638.22 1074.25,638.30 1076.00,638.34 1077.75,638.36 1079.50,638.47 1081.25,638.42 1083.00,638.44 1084.75,638.45 1086.50,638.36 1088.25,638.29 1090.00,638.38 1091.75,638.40 1093.50,638.40 1095.25,638.45 1097.00,638.53 1098.75,638.51 1100.50,638.50 1102.25,638.46 1104.00,638.54 1105.75,638.49 1107.50,638.55 1109.25,638.62 1111.00,638.59 1112.75,638.56 1114.50,638.63 1116.25,638.59 1118.00,638.55 1119.75,638.66 1121.50,638.63 1123.25,638.68 1125.00,638.77 1126.75,638.84 1128.50,638.84 1130.25,638.91 1132.00,638.84 1133.75,638.86 1135.50,638.84 1137.25,638.80 1139.00,638.85 1140.75,638.95 1142.50,638.99 1144.25,638.97 1146.00,638.96 1147.75,638.96 1149.50,638.91 1151.25,638.90 1153.00,639.01 1154.75,639.12 1156.50,639.10 1158.25,639.13 1160.00,639.09" />
<polyline fill="none" stroke="#2ca02c" stroke-width="3" points="110.00,338.61 111.73,252.49 113.48,269.70 115.23,301.36 116.98,311.33 118.73,323.39 120.48,335.10 122.23,345.76 123.98,309.04 125.73,301.16 127.48,302.04 129.23,310.25 130.98,291.11 132.73,320.49 134.48,333.98 136.23,306.34 137.98,316.13 139.73,342.06 141.48,335.32 143.23,345.85 144.98,379.96 146.73,389.55 148.48,398.09 150.23,393.37 151.98,379.50 153.73,381.46 155.48,374.45 157.23,357.62 158.98,391.70 160.73,386.47 162.48,378.68 164.23,394.60 165.98,408.93 167.73,383.07 169.48,383.65 171.23,389.42 172.98,375.20 174.73,382.96 176.48,412.36 178.23,422.07 179.98,426.59 181.73,438.12 183.48,441.57 185.23,442.59 186.98,439.32 188.73,432.07 190.48,437.88 192.23,443.29 193.98,429.79 195.73,439.45 197.48,432.29 199.23,443.80 200.98,427.59 202.73,441.18 204.48,438.79 206.23,446.37 207.98,450.73 209.73,456.74 211.48,450.55 213.23,455.97 214.98,455.30 216.73,457.83 218.48,459.94 220.23,455.96 221.98,453.19 223.73,460.39 225.48,456.25 227.23,453.73 228.98,459.36 230.73,476.51 232.48,484.55 234.23,491.14 235.98,495.21 237.73,492.97 239.48,492.79 241.23,491.58 242.98,485.99 244.73,500.69 246.48,508.40 248.23,515.36 249.98,509.04 251.73,509.13 253.48,496.95 255.23,504.68 256.98,504.71 258.73,513.42 260.49,519.10 262.24,519.65 263.99,512.00 265.74,503.01 267.49,504.05 269.24,502.71 270.99,502.90 272.74,505.27 274.49,517.96 276.24,525.80 277.99,520.24 279.74,526.73 281.49,532.38 283.24,527.86 284.99,519.64 286.74,524.35 288.49,531.59 290.24,524.76 291.99,525.67 293.74,525.92 295.49,535.16 297.24,534.38 298.99,541.14 300.74,543.86 302.49,549.46 304.24,551.19 305.99,552.57 307.74,553.69 309.49,556.64 311.24,565.20 312.99,557.15 314.74,551.11 316.49,556.00 318.24,556.97 319.99,556.68 321.74,565.72 323.49,569.71 325.24,565.02 326.99,567.21 328.74,568.83 330.49,562.10 332.24,562.18 333.99,560.35 335.74,557.40 337.49,554.58 339.24,558.09 340.99,559.50 342.74,563.34 344.49,558.09 346.24,557.36 347.99,557.47 349.74,563.83 351.49,568.39 353.24,578.41 354.99,579.04 356.74,584.98 358.49,577.73 360.24,573.18 361.99,573.64 363.74,574.43 365.49,568.71 367.24,571.62 368.99,573.36 370.74,570.66 372.49,573.31 374.24,574.57 375.99,575.05 377.74,580.29 379.49,577.38 381.24,580.30 382.99,584.42 384.74,585.85 386.49,582.58 388.24,584.03 389.99,583.18 391.74,585.91 393.49,586.80 395.24,588.78 396.99,592.27 398.74,593.76 400.49,590.91 402.24,595.41 403.99,594.36 405.74,594.32 407.49,590.61 409.24,592.95 410.99,590.61 412.74,590.37 414.49,592.05 416.24,593.25 417.99,589.90 419.74,589.64 421.49,595.73 423.24,592.62 424.99,592.44 426.74,593.30 428.49,593.74 430.24,589.97 431.99,593.60 433.74,595.76 435.49,595.49 437.24,597.43 438.99,597.52 440.74,596.76 442.49,597.31 444.24,599.01 445.99,597.60 447.74,601.25 449.49,599.42 451.24,598.66 452.99,599.10 454.74,601.63 456.49,601.02 458.24,602.41 459.99,604.14 461.74,608.05 463.49,608.94 465.24,610.71 466.99,614.32 468.74,614.03 470.49,614.11 472.24,614.40 473.99,614.02 475.74,610.53 477.49,612.19 479.24,611.67 480.99,612.69 482.74,610.31 484.49,613.25 486.24,612.39 487.99,611.58 489.74,609.17 491.49,609.58 493.24,609.82 494.99,608.97 496.74,607.83 498.49,610.38 500.24,611.98 501.99,610.87 503.74,612.28 505.49,614.80 507.24,613.22 508.99,612.11 510.74,612.46 512.49,613.23 514.24,614.17 515.99,613.44 517.74,615.79 519.49,615.51 521.24,613.65 522.99,613.61 524.74,615.31 526.49,616.14 528.24,617.39 529.99,618.79 531.74,617.38 533.49,618.39 535.24,618.68 536.99,619.95 538.74,619.55 540.49,621.27 542.24,619.67 543.99,619.28 545.74,618.04 547.49,617.70 549.24,617.28 550.99,619.25 552.74,619.63 554.49,620.09 556.24,622.43 557.99,623.08 559.74,621.44 561.49,621.33 563.24,622.86 564.99,621.27 566.74,621.07 568.49,621.51 570.24,621.43 571.99,621.71 573.74,622.58 575.49,622.73 577.24,624.47 578.99,623.61 580.74,622.39 582.49,622.38 584.24,622.74 585.99,622.78 587.74,624.57 589.49,624.84 591.24,625.02 592.99,624.77 594.74,623.86 596.49,624.22 598.24,625.28 599.99,625.60 601.74,625.66 603.49,625.74 605.24,624.17 606.99,623.28 608.74,624.33 610.49,623.52 612.24,623.55 613.99,624.21 615.74,624.34 617.49,622.94 619.24,623.39 620.99,624.67 622.74,625.10 624.49,625.77 626.24,626.25 627.99,626.94 629.74,627.07 631.49,627.08 633.24,627.36 634.99,627.33 636.74,626.63 638.49,625.81 640.24,625.64 641.99,624.76 643.74,625.61 645.49,626.98 647.24,628.12 648.99,628.62 650.74,629.23 652.49,628.53 654.24,627.57 655.99,626.99 657.74,627.12 659.49,627.97 661.24,628.93 662.99,630.14 664.74,630.67 666.49,631.40 668.24,630.72 669.99,631.25 671.74,631.45 673.49,630.69 675.24,629.69 676.99,629.51 678.74,629.19 680.49,628.99 682.24,629.44 683.99,630.20 685.74,630.83 687.49,630.55 689.24,630.29 690.99,630.17 692.74,630.34 694.49,630.48 696.24,630.63 697.99,630.78 699.74,631.69 701.49,631.56 703.24,631.22 704.99,631.53 706.74,631.66 708.49,631.04 710.24,630.92 711.99,631.73 713.74,631.46 715.49,631.33 717.24,631.50 718.99,631.41 720.74,630.68 722.49,630.80 724.24,631.43 725.99,631.81 727.74,632.47 729.49,632.55 731.24,633.11 732.99,633.21 734.74,633.33 736.49,632.56 738.24,632.80 739.99,633.01 741.74,633.11 743.49,633.30 745.24,633.56 746.99,634.24 748.74,633.95 750.49,633.49 752.24,633.12 753.99,633.84 755.74,633.72 757.49,633.48 759.24,633.63 760.99,633.95 762.74,633.25 764.49,632.90 766.24,633.40 767.99,633.25 769.74,632.83 771.49,633.55 773.24,633.42 774.99,633.26 776.74,633.43 778.49,633.78 780.24,633.62 781.99,634.36 783.74,634.26 785.49,634.36 787.24,634.24 788.99,634.04 790.74,633.73 792.49,633.90 794.24,634.02 795.99,634.53 797.74,634.43 799.49,634.63 801.24,634.90 802.99,635.10 804.74,634.65 806.49,634.80 808.24,634.66 809.99,634.32 811.74,633.97 813.49,634.16 815.24,634.40 816.99,634.46 818.74,634.74 820.49,634.69 822.24,634.75 823.99,635.08 825.74,635.37 827.49,635.53 829.24,636.17 830.99,636.04 832.74,635.94 834.49,635.58 836.24,635.63 837.99,635.31 839.74,635.57 841.49,635.60 843.24,635.91 844.99,635.57 846.74,635.96 848.49,636.02 850.24,636.22 851.99,636.15 853.74,636.33 855.49,636.00 857.24,636.15 858.99,635.88 860.75,636.20 862.50,636.31 864.25,636.34 866.00,635.96 867.75,636.15 869.50,636.21 871.25,636.56 873.00,636.64 874.75,636.87 876.50,636.58 878.25,636.44 880.00,636.35 881.75,636.47 883.50,636.75 885.25,637.18 887.00,637.28 888.75,637.15 890.50,637.22 892.25,637.01 894.00,636.78 895.75,636.78 897.50,636.62 899.25,636.68 901.00,636.80 902.75,636.92 904.50,637.06 906.25,637.17 908.00,637.04 909.75,637.03 911.50,637.10 913.25,637.02 915.00,637.13 916.75,637.34 918.50,637.19 920.25,637.06 922.00,636.85 923.75,637.03 925.50,636.87 927.25,637.07 929.00,637.24 930.75,637.38 932.50,637.35 934.25,637.41 936.00,637.62 937.75,637.59 939.50,637.47 941.25,637.62 943.00,637.79 944.75,637.62 946.50,637.77 948.25,638.05 950.00,637.77 951.75,637.54 953.50,637.81 955.25,637.61 957.00,637.74 958.75,638.10 960.50,638.08 962.25,637.97 964.00,638.24 965.75,638.28 967.50,638.05 969.25,638.39 971.00,638.37 972.75,638.31 974.50,638.25 976.25,638.40 978.00,638.34 979.75,638.37 981.50,638.21 983.25,638.02 985.00,637.96 986.75,637.78 988.50,637.68 990.25,637.69 992.00,637.92 993.75,637.93 995.50,638.20 997.25,638.35 999.00,638.48 1000.75,638.54 1002.50,638.45 1004.25,638.42 1006.00,638.45 1007.75,638.59 1009.50,638.56 1011.25,638.76 1013.00,638.75 1014.75,638.66 1016.50,638.71 1018.25,638.75 1020.00,638.69 1021.75,638.60 1023.50,638.79 1025.25,638.56 1027.00,638.60 1028.75,638.59 1030.50,638.67 1032.25,638.50 1034.00,638.55 1035.75,638.53 1037.50,638.72 1039.25,638.71 1041.00,638.94 1042.75,639.00 1044.50,638.84 1046.25,638.67 1048.00,638.70 1049.75,638.48 1051.50,638.50 1053.25,638.51 1055.00,638.53 1056.75,638.54 1058.50,638.56 1060.25,638.60 1062.00,638.78 1063.75,638.98 1065.50,639.17 1067.25,639.40 1069.00,639.44 1070.75,639.31 1072.50,639.31 1074.25,639.24 1076.00,639.04 1077.75,638.98 1079.50,639.05 1081.25,639.03 1083.00,639.08 1084.75,639.15 1086.50,639.23 1088.25,639.26 1090.00,639.14 1091.75,639.19 1093.50,639.20 1095.25,639.09 1097.00,639.12 1098.75,639.22 1100.50,639.10 1102.25,639.08 1104.00,639.33 1105.75,639.28 1107.50,639.20 1109.25,639.23 1111.00,639.27 1112.75,639.20 1114.50,639.23 1116.25,639.36 1118.00,639.42 1119.75,639.37 1121.50,639.26 1123.25,639.41 1125.00,639.35 1126.75,639.37 1128.50,639.42 1130.25,639.59 1132.00,639.54 1133.75,639.50 1135.50,639.56 1137.25,639.70 1139.00,639.60 1140.75,639.51 1142.50,639.67 1144.25,639.56 1146.00,639.46 1147.75,639.57 1149.50,639.64 1151.25,639.53 1153.00,639.62 1154.75,639.72 1156.50,639.67 1158.25,639.63 1160.00,639.70" />
<text x="600.0" y="34" text-anchor="middle" font-size="34">Training Curves (smoothed PDE/BCIC)</text>
<text x="600.0" y="702" text-anchor="middle" font-size="26">Epoch</text>
<text x="34" y="360.0" transform="rotate(-90,34,360.0)" text-anchor="middle" font-size="26">Error</text>
<text x="860" y="120" font-size="28" fill="#1f77b4">L2</text>
<text x="860" y="160" font-size="28" fill="#d62728">PDE residual (MA5)</text>
<text x="860" y="200" font-size="28" fill="#2ca02c">BC/IC error (MA5)</text>
</svg>