<svg xmlns="http://www.w3.org/2000/svg" width="1200" height="720">
<rect width="100%" height="100%" fill="white"/>
<line x1="110" y1="50.00" x2="1160" y2="50.00" stroke="#e6e6e6" />
<line x1="110" y1="168.00" x2="1160" y2="168.00" stroke="#e6e6e6" />
<line x1="110" y1="286.00" x2="1160" y2="286.00" stroke="#e6e6e6" />
<line x1="110" y1="404.00" x2="1160" y2="404.00" stroke="#e6e6e6" />
<line x1="110" y1="522.00" x2="1160" y2="522.00" stroke="#e6e6e6" />
<line x1="110" y1="640.00" x2="1160" y2="640.00" stroke="#e6e6e6" />
<line x1="110" y1="640" x2="1160" y2="640" stroke="#333"/>
<line x1="110" y1="50" x2="110" y2="640" stroke="#333"/>
<polyline fill="none" stroke="#1f77b4" stroke-width="4" points="110.00,91.01 127.80,110.90 145.59,128.91 163.39,145.19 181.19,159.93 198.98,173.27 216.78,185.34 234.58,196.25 252.37,206.13 270.17,215.07 287.97,223.16 305.76,230.48 323.56,237.10 341.36,243.09 359.15,248.52 376.95,253.42 394.75,257.86 412.54,261.87 430.34,265.52 448.14,268.80 465.93,271.77 483.73,274.47 501.53,276.90 519.32,279.11 537.12,281.10 554.92,282.91 572.71,284.54 590.51,286.02 608.31,287.36 626.10,288.56 643.90,289.66 661.69,290.65 679.49,291.55 697.29,292.36 715.08,293.09 732.88,293.75 750.68,294.35 768.47,294.90 786.27,295.39 804.07,295.84 821.86,296.24 839.66,296.61 857.46,296.93 875.25,297.23 893.05,297.50 910.85,297.75 928.64,297.97 946.44,298.17 964.24,298.35 982.03,298.51 999.83,298.66 1017.63,298.79 1035.42,298.92 1053.22,299.03 1071.02,299.13 1088.81,299.22 1106.61,299.30 1124.41,299.37 1142.20,299.43 1160.00,299.49" />
<polyline fill="none" stroke="#d62728" stroke-width="3" points="110.00,313.92 127.80,275.71 145.59,200.47 163.39,231.75 181.19,257.63 198.98,229.05 216.78,243.48 234.58,269.08 252.37,238.04 270.17,247.80 287.97,242.77 305.76,253.51 323.56,277.80 341.36,322.83 359.15,282.77 376.95,287.20 394.75,231.17 412.54,219.83 430.34,185.19 448.14,191.41 465.93,244.94 483.73,298.32 501.53,324.27 519.32,351.45 537.12,369.13 554.92,359.16 572.71,315.20 590.51,290.21 608.31,259.93 626.10,260.27 643.90,231.24 661.69,250.40 679.49,239.93 697.29,289.65 715.08,298.27 732.88,278.10 750.68,304.61 768.47,331.79 786.27,302.64 804.07,304.57 821.86,352.29 839.66,312.34 857.46,324.92 875.25,321.77 893.05,335.84 910.85,310.91 928.64,344.08 946.44,333.09 964.24,331.96 982.03,276.00 999.83,269.77 1017.63,262.01 1035.42,244.28 1053.22,250.92 1071.02,244.66 1088.81,276.28 1106.61,301.06 1124.41,285.35 1142.20,271.37 1160.00,326.61" />
<polyline fill="none" stroke="#2ca02c" stroke-width="3" points="110.00,452.74 127.80,370.15 145.59,327.92 163.39,353.04 181.19,384.41 198.98,410.65 216.78,428.04 234.58,484.90 252.37,466.50 270.17,433.48 287.97,417.21 305.76,404.00 323.56,416.29 341.36,419.84 359.15,425.13 376.95,416.44 394.75,456.85 412.54,414.04 430.34,416.87 448.14,426.32 465.93,447.32 483.73,467.16 501.53,513.04 519.32,528.73 537.12,550.38 554.92,549.21 572.71,516.65 590.51,513.36 608.31,542.21 626.10,506.87 643.90,490.68 661.69,480.21 679.49,477.38 697.29,469.03 715.08,515.00 732.88,497.05 750.68,508.51 768.47,469.21 786.27,472.47 804.07,452.52 821.86,469.77 839.66,484.86 857.46,480.43 875.25,490.64 893.05,516.87 910.85,505.14 928.64,524.62 946.44,524.93 964.24,474.43 982.03,480.17 999.83,486.65 1017.63,475.05 1035.42,525.98 1053.22,555.80 1071.02,506.23 1088.81,516.71 1106.61,479.70 1124.41,469.02 1142.20,460.17 1160.00,466.73" />
<text x="600.0" y="34" text-anchor="middle" font-size="34">Training Curves (smoothed PDE/BCIC)</text>
<text x="600.0" y="702" text-anchor="middle" font-size="26">Epoch</text>
<text x="34" y="360.0" transform="rotate(-90,34,360.0)" text-anchor="middle" font-size="26">Error</text>
<text x="860" y="120" font-size="28" fill="#1f77b4">L2</text>
<text x="860" y="160" font-size="28" fill="#d62728">PDE residual (MA5)</text>
<text x="860" y="200" font-size="28" fill="#2ca02c">BC/IC error (MA5)</text>
</svg>