<svg xmlns="http://www.w3.org/2000/svg" width="960" height="540">
<rect width="100%" height="100%" fill="white" />
<line x1="90" y1="40.00" x2="920" y2="40.00" stroke="#eaeaea" />
<line x1="90" y1="126.00" x2="920" y2="126.00" stroke="#eaeaea" />
<line x1="90" y1="212.00" x2="920" y2="212.00" stroke="#eaeaea" />
<line x1="90" y1="298.00" x2="920" y2="298.00" stroke="#eaeaea" />
<line x1="90" y1="384.00" x2="920" y2="384.00" stroke="#eaeaea" />
<line x1="90" y1="470.00" x2="920" y2="470.00" stroke="#eaeaea" />
<line x1="90" y1="470" x2="920" y2="470" stroke="#333" />
<line x1="90" y1="40" x2="90" y2="470" stroke="#333" />
<polyline fill="none" stroke="#1f77b4" stroke-width="2" points="90.00,69.89 104.07,84.39 118.14,97.51 132.20,109.38 146.27,120.12 160.34,129.84 174.41,138.63 188.47,146.59 202.54,153.79 216.61,160.31 230.68,166.20 244.75,171.53 258.81,176.36 272.88,180.73 286.95,184.68 301.02,188.26 315.08,191.49 329.15,194.42 343.22,197.07 357.29,199.46 371.36,201.63 385.42,203.60 399.49,205.37 413.56,206.98 427.63,208.43 441.69,209.75 455.76,210.94 469.83,212.01 483.90,212.99 497.97,213.87 512.03,214.67 526.10,215.39 540.17,216.04 554.24,216.63 568.31,217.17 582.37,217.65 596.44,218.09 610.51,218.49 624.58,218.85 638.64,219.17 652.71,219.46 666.78,219.73 680.85,219.97 694.92,220.19 708.98,220.38 723.05,220.56 737.12,220.72 751.19,220.87 765.25,221.00 779.32,221.12 793.39,221.23 807.46,221.32 821.53,221.41 835.59,221.49 849.66,221.57 863.73,221.63 877.80,221.69 891.86,221.74 905.93,221.79 920.00,221.83" />
<polyline fill="none" stroke="#d62728" stroke-width="2" points="90.00,232.35 104.07,176.65 118.14,40.00 132.20,240.87 146.27,266.77 160.34,128.20 174.41,229.21 188.47,133.29 202.54,127.75 216.61,302.32 230.68,109.89 244.75,268.36 258.81,221.81 272.88,291.84 286.95,156.35 301.02,126.00 315.08,64.19 329.15,180.51 343.22,165.58 357.29,179.02 371.36,321.07 385.42,258.73 399.49,275.04 413.56,264.65 427.63,243.43 441.69,284.72 455.76,98.54 469.83,184.00 483.90,154.29 497.97,244.69 512.03,178.94 526.10,168.36 540.17,145.85 554.24,335.47 568.31,276.08 582.37,105.44 596.44,265.00 610.51,244.88 624.58,229.24 638.64,283.14 652.71,279.32 666.78,119.43 680.85,290.69 694.92,217.78 708.98,334.38 723.05,188.49 737.12,240.30 751.19,250.63 765.25,213.68 779.32,130.46 793.39,165.78 807.46,212.04 821.53,186.02 835.59,237.87 849.66,107.65 863.73,281.02 877.80,302.33 891.86,128.78 905.93,186.93 920.00,308.92" />
<polyline fill="none" stroke="#2ca02c" stroke-width="2" points="90.00,333.52 104.07,213.14 118.14,180.99 132.20,315.78 146.27,375.18 160.34,429.12 174.41,276.52 188.47,388.22 202.54,248.72 216.61,254.83 230.68,369.84 244.75,228.39 258.81,433.00 272.88,261.67 286.95,274.11 301.02,338.16 315.08,375.68 329.15,276.97 343.22,271.97 357.29,308.57 371.36,414.66 385.42,447.99 399.49,444.16 413.56,329.14 427.63,387.46 441.69,410.43 455.76,329.33 469.83,432.15 483.90,434.27 497.97,258.71 512.03,351.40 526.10,291.20 540.17,421.83 554.24,403.84 568.31,426.23 582.37,285.98 596.44,332.95 610.51,278.64 624.58,415.73 638.64,353.52 652.71,348.84 666.78,387.94 680.85,262.48 694.92,452.95 708.98,449.11 723.05,306.09 737.12,458.93 751.19,263.59 765.25,268.95 779.32,470.00 793.39,329.73 807.46,416.64 821.53,449.18 835.59,377.63 849.66,289.37 863.73,367.91 877.80,281.78 891.86,410.25 905.93,345.35 920.00,313.29" />
<text x="480" y="24" text-anchor="middle" font-size="20">Training Curves (PINN-style)</text>
<text x="480" y="522" text-anchor="middle" font-size="14">Epoch</text>
<text x="24" y="270" transform="rotate(-90,24,270)" text-anchor="middle" font-size="14">Error</text>
<rect x="700" y="70" width="14" height="4" fill="#1f77b4" /><text x="720" y="74" font-size="12">L2</text>
<rect x="700" y="95" width="14" height="4" fill="#d62728" /><text x="720" y="99" font-size="12">PDE residual</text>
<rect x="700" y="120" width="14" height="4" fill="#2ca02c" /><text x="720" y="124" font-size="12">BC/IC error</text>
</svg>